This is Mars: The Viking Mission 3D (2012) QHD Half-SBS for 3DTV - EVO 3D 

made specifically for 3DTV's and handheld 3D Devices alike with Auto-3D Enabled

(no more putting your device into 3D mode, 
it will read this file like a disc and do it for you)

Encoded by the group ---SICK-FLIX ---- 

Bringing EVO 3D users more content than amazon since June 2011

Over 500 Real 3D Titles from all over the Globe


THIS WAS A DIRECT RIP FROM THE 3D BLURAY. THE 3D EFFECT WAS FROM THE 1979 MISSION. 


Complete name : Mars In 3D- Viking Mission (2012) QHD Half-SBS for 3DTV - EVO 3D.mp4
Format : MPEG-4
Format profile : Base Media / Version 2
Codec ID : mp42
File size : 434 MiB
Duration : 32mn 50s
Overall bit rate mode : Variable
Overall bit rate : 2 848 Kbps
Encoded date : UTC 2012-07-13 00:49:01
Tagged date : UTC 2012-07-13 01:00:43
Writing application : HandBrake 4598svn 2012041401

Video
ID : 1
Format : AVC
Format/Info : Advanced Video Codec
Format profile : High@L3.1
Format settings, CABAC : Yes
Format settings, ReFrames : 6 frames
Codec ID : avc1
Codec ID/Info : Advanced Video Coding
Duration : 32mn 50s
Bit rate mode : Variable
Bit rate : 2 613 Kbps
Display aspect ratio : 16:9
Frame rate mode : Variable
Frame rate : 23.920 fps
Minimum frame rate : 11.987 fps
Maximum frame rate : 23.981 fps
Color space : YUV
Chroma subsampling : 4:2:0
Bit depth : 8 bits
Scan type : Progressive
Bits/(Pixel*Frame) : 0.130
Stream size : 379 MiB (87%)
Writing library : x264 core 122
Encoding settings : cabac=1 / ref=6 / deblock=1:0:0 / analyse=0x3:0x113 / me=umh / subme=7 / psy=1 / psy_rd=1.00:0.00 / mixed_ref=0 / me_range=42 / chroma_me=1 / trellis=1 / 8x8dct=1 / cqm=0 / deadzone=21,11 / fast_pskip=1 / chroma_qp_offset=-2 / threads=6 / sliced_threads=0 / nr=0 / decimate=1 / interlaced=0 / bluray_compat=0 / constrained_intra=0 / bframes=6 / b_pyramid=2 / b_adapt=2 / b_bias=0 / direct=3 / weightb=0 / open_gop=0 /
weightp=2 / keyint=240 / keyint_min=24 / scenecut=40 / intra_refresh=0 / rc_lookahead=40 / rc=crf / mbtree=1 / crf=16.0 / qcomp=0.60 / qpmin=3 / qpmax=69 / qpstep=4 / frame-packing=3 / ip_ratio=1.40 / aq=1:1.00
Encoded date : UTC 2012-07-13 00:49:01
Tagged date : UTC 2012-07-13 01:00:43
Color primaries : BT.709-5, BT.1361, IEC 61966-2-4, SMPTE RP177
Transfer characteristics : BT.709-5, BT.1361
Matrix coefficients : BT.709-5, BT.1361, IEC 61966-2-4 709, SMPTE RP177

Audio
ID : 2
Format : AAC
Format/Info : Advanced Audio Codec
Format profile : LC
Codec ID : 40
Duration : 32mn 50s
Bit rate mode : Variable
Bit rate : 230 Kbps
Maximum bit rate : 370 Kbps
Channel(s) : 2 channels
Channel positions : Front: L R
Sampling rate : 48.0 KHz
Compression mode : Lossy
Stream size : 54.0 MiB (12%)
Encoded date : UTC 2012-07-13 00:49:01
Tagged date : UTC 2012-07-13 01:00:42

A historical production by Stanford University and the History Office of the NASA Ames Research Center presented in Blu-ray 3D Video and features footage from the 1980's NASA Viking 1 & 2 Missions to Mars. The soundtrack was created at the Center for Computer Research in Music and Acoustics (CCRMA) at Stanford under the direction of John Chowning. This disc contains bonus features including a 15 minute interview with John Chowning, William Schottstaedt and Michael McNabb.


Seedbox Supported, for any questions please just google SICK-FLIX !!